<?xml version="1.0" encoding="UTF-8"?>
<svg xmlns="http://www.w3.org/2000/svg" xmlns:xlink="http://www.w3.org/1999/xlink" width="50px" height="50px" viewBox="0 0 50 50" version="1.1">
<defs>
<linearGradient id="linear0" gradientUnits="userSpaceOnUse" x1="23.436" y1="18.741" x2="29.405" y2="40.722" gradientTransform="matrix(1.336979,0,0,1.257604,-4.604167,-5.5)">
<stop offset="0" style="stop-color:rgb(94.901961%,94.901961%,94.901961%);stop-opacity:1;"/>
<stop offset="1" style="stop-color:rgb(80%,80%,80%);stop-opacity:1;"/>
</linearGradient>
<linearGradient id="linear1" gradientUnits="userSpaceOnUse" x1="15.139" y1="10.443" x2="18.633" y2="31.32" gradientTransform="matrix(1.336979,0,0,1.257604,-4.604167,-5.5)">
<stop offset="0" style="stop-color:rgb(41.568627%,0%,0%);stop-opacity:1;"/>
<stop offset="1" style="stop-color:rgb(93.333333%,0%,0%);stop-opacity:1;"/>
</linearGradient>
<linearGradient id="linear2" gradientUnits="userSpaceOnUse" x1="20.292" y1="18.098" x2="19.542" y2="12.128" gradientTransform="matrix(1.2835,0,0,1.2073,249.87,404.8)">
<stop offset="0" style="stop-color:rgb(0%,0%,0%);stop-opacity:1;"/>
<stop offset="1" style="stop-color:rgb(0%,0%,0%);stop-opacity:0;"/>
</linearGradient>
</defs>
<g id="surface1">
<path style=" stroke:none;fill-rule:nonzero;fill:url(#linear0);" d="M 47.261719 6.167969 C 44.851562 17.058594 51.957031 32.078125 44.902344 41.679688 C 39.695312 43.421875 29.503906 45.480469 6.296875 45.710938 C 8.328125 45.710938 9.902344 41.308594 9.359375 34.671875 L 6.589844 18.433594 C 6.476562 8.585938 17.984375 8.449219 20.25 13.425781 C 25.035156 10.074219 37.660156 7.015625 47.261719 6.167969 Z M 47.261719 6.167969 "/>
<path style=" stroke:none;fill-rule:nonzero;fill:url(#linear1);" d="M 2.207031 19.34375 L 2.207031 33.257812 L 38.40625 33.257812 L 38.40625 19.34375 Z M 2.207031 19.34375 "/>
<path style=" stroke:none;fill-rule:nonzero;fill:rgb(50.196078%,0%,0%);fill-opacity:1;" d="M 7.191406 22.144531 L 11.363281 22.144531 C 12.601562 22.144531 13.554688 22.40625 14.214844 22.925781 C 14.882812 23.441406 15.214844 24.175781 15.214844 25.136719 C 15.214844 26.097656 14.882812 26.839844 14.214844 27.359375 C 13.554688 27.875 12.601562 28.132812 11.363281 28.132812 L 9.703125 28.132812 L 9.703125 31.3125 L 7.191406 31.3125 L 7.191406 22.144531 M 9.703125 23.859375 L 9.703125 26.417969 L 11.09375 26.417969 C 11.582031 26.417969 11.957031 26.308594 12.222656 26.085938 C 12.488281 25.863281 12.621094 25.542969 12.621094 25.136719 C 12.621094 24.726562 12.488281 24.410156 12.222656 24.191406 C 11.957031 23.96875 11.582031 23.859375 11.09375 23.859375 L 9.703125 23.859375 "/>
<path style=" stroke:none;fill-rule:nonzero;fill:rgb(50.196078%,0%,0%);fill-opacity:1;" d="M 19.5 23.933594 L 19.5 29.527344 L 20.398438 29.527344 C 21.425781 29.527344 22.210938 29.289062 22.75 28.808594 C 23.292969 28.332031 23.566406 27.632812 23.566406 26.722656 C 23.566406 25.8125 23.296875 25.121094 22.757812 24.644531 C 22.214844 24.171875 21.429688 23.933594 20.398438 23.933594 L 19.5 23.933594 M 16.984375 22.144531 L 19.636719 22.144531 C 21.117188 22.144531 22.214844 22.246094 22.9375 22.445312 C 23.664062 22.644531 24.289062 22.980469 24.804688 23.453125 C 25.261719 23.867188 25.601562 24.34375 25.824219 24.886719 C 26.046875 25.425781 26.15625 26.039062 26.15625 26.722656 C 26.15625 27.414062 26.046875 28.03125 25.824219 28.574219 C 25.601562 29.117188 25.261719 29.59375 24.804688 30.007812 C 24.285156 30.480469 23.65625 30.820312 22.925781 31.019531 C 22.195312 31.214844 21.097656 31.316406 19.636719 31.316406 L 16.984375 31.316406 L 16.984375 22.144531 "/>
<path style=" stroke:none;fill-rule:nonzero;fill:rgb(50.196078%,0%,0%);fill-opacity:1;" d="M 28.078125 22.144531 L 34.863281 22.144531 L 34.863281 23.933594 L 30.59375 23.933594 L 30.59375 25.640625 L 34.605469 25.640625 L 34.605469 27.425781 L 30.59375 27.425781 L 30.59375 31.3125 L 28.078125 31.3125 L 28.078125 22.144531 "/>
<path style=" stroke:none;fill-rule:nonzero;fill:rgb(100%,100%,100%);fill-opacity:1;" d="M 6.804688 21.726562 L 10.976562 21.726562 C 12.214844 21.726562 13.167969 21.984375 13.828125 22.503906 C 14.496094 23.019531 14.828125 23.757812 14.828125 24.714844 C 14.828125 25.679688 14.496094 26.417969 13.828125 26.9375 C 13.167969 27.453125 12.214844 27.710938 10.976562 27.710938 L 9.316406 27.710938 L 9.316406 30.894531 L 6.804688 30.894531 L 6.804688 21.726562 M 9.316406 23.4375 L 9.316406 26 L 10.707031 26 C 11.195312 26 11.574219 25.890625 11.839844 25.667969 C 12.101562 25.441406 12.234375 25.125 12.234375 24.714844 C 12.234375 24.304688 12.101562 23.992188 11.839844 23.769531 C 11.574219 23.550781 11.195312 23.4375 10.707031 23.4375 L 9.316406 23.4375 "/>
<path style=" stroke:none;fill-rule:nonzero;fill:rgb(100%,100%,100%);fill-opacity:1;" d="M 19.113281 23.511719 L 19.113281 29.109375 L 20.011719 29.109375 C 21.039062 29.109375 21.824219 28.867188 22.363281 28.390625 C 22.90625 27.910156 23.179688 27.214844 23.179688 26.300781 C 23.179688 25.394531 22.910156 24.699219 22.371094 24.226562 C 21.832031 23.75 21.046875 23.515625 20.011719 23.515625 L 19.113281 23.515625 M 16.601562 21.726562 L 19.25 21.726562 C 20.730469 21.726562 21.832031 21.828125 22.554688 22.027344 C 23.28125 22.222656 23.902344 22.558594 24.421875 23.035156 C 24.875 23.449219 25.214844 23.925781 25.4375 24.464844 C 25.660156 25.007812 25.769531 25.617188 25.769531 26.300781 C 25.769531 26.992188 25.660156 27.613281 25.4375 28.15625 C 25.214844 28.695312 24.875 29.171875 24.421875 29.585938 C 23.898438 30.0625 23.269531 30.398438 22.539062 30.601562 C 21.808594 30.796875 20.710938 30.894531 19.25 30.894531 L 16.601562 30.894531 L 16.601562 21.726562 "/>
<path style=" stroke:none;fill-rule:nonzero;fill:rgb(100%,100%,100%);fill-opacity:1;" d="M 27.695312 21.726562 L 34.476562 21.726562 L 34.476562 23.511719 L 30.207031 23.511719 L 30.207031 25.21875 L 34.222656 25.21875 L 34.222656 27.007812 L 30.207031 27.007812 L 30.207031 30.894531 L 27.695312 30.894531 L 27.695312 21.726562 "/>
<path style="fill:none;stroke-width:1.2448;stroke-linecap:butt;stroke-linejoin:miter;stroke:url(#linear2);stroke-miterlimit:4;" d="M 265.33 420.25 C 267.835 419.6125 271.3525 420.64 273.65125 422.86 C 282.1075 419.72125 290.56375 417.505 299.01625 416.02375 " transform="matrix(1.041667,0,0,1.041667,-264.885417,-427.166667)"/>
<path style="fill:none;stroke-width:1.1008;stroke-linecap:butt;stroke-linejoin:miter;stroke:rgb(43.921569%,0%,0%);stroke-opacity:1;stroke-miterlimit:4;" d="M 256.37875 441.95125 L 291.1225 441.8575 L 291.1225 428.7325 " transform="matrix(1.041667,0,0,1.041667,-264.885417,-427.166667)"/>
<path style=" stroke:none;fill-rule:nonzero;fill:rgb(100%,100%,100%);fill-opacity:1;" d="M 14.019531 10.207031 C 16.761719 10.574219 18.695312 11.332031 20.335938 12.824219 C 28.621094 9.398438 35.796875 8.289062 44.34375 6.476562 Z M 14.019531 10.207031 "/>
</g>
</svg>
